%FSLAX25Y25*%
%MOIN*%
G70*
G01*
G75*
G04 Layer_Color=65535*
%ADD10C,0.01000*%
%ADD11R,0.05906X0.05906*%
%ADD12C,0.05906*%
%ADD13C,0.07500*%
%ADD14C,0.12992*%
%ADD15C,0.04724*%
%ADD16R,0.04724X0.04724*%
%ADD17C,0.05512*%
%ADD18R,0.05906X0.05906*%
%ADD19C,0.20000*%
%ADD20C,0.05600*%
%ADD21C,0.06299*%
%ADD22R,0.06299X0.06299*%
%ADD23C,0.06299*%
%ADD24R,0.06299X0.06299*%
%ADD25C,0.05000*%
%ADD26C,0.00098*%
%ADD27C,0.00984*%
%ADD28C,0.02362*%
%ADD29C,0.00787*%
%ADD30C,0.00098*%
%ADD31C,0.00800*%
%ADD32C,0.00591*%
D10*
X205000Y109000D02*
Y141000D01*
X163000Y109000D02*
X205000D01*
X163000D02*
Y141000D01*
X205000D01*
X135000Y105000D02*
Y125000D01*
X115000Y155000D02*
X135000D01*
Y125000D02*
Y155000D01*
X115000Y105000D02*
X135000D01*
X115000D02*
Y155000D01*
X167499Y149498D02*
X166499Y150498D01*
X164500D01*
X163500Y149498D01*
Y148499D01*
X164500Y147499D01*
X166499D01*
X167499Y146499D01*
Y145500D01*
X166499Y144500D01*
X164500D01*
X163500Y145500D01*
X169498Y150498D02*
Y144500D01*
X171497Y146499D01*
X173497Y144500D01*
Y150498D01*
X175496Y144500D02*
X177496D01*
X176496D01*
Y150498D01*
X175496Y149498D01*
X254999Y372498D02*
X253999Y373498D01*
X252000D01*
X251000Y372498D01*
Y368500D01*
X252000Y367500D01*
X253999D01*
X254999Y368500D01*
X256998Y367500D02*
X258997D01*
X257998D01*
Y373498D01*
X256998Y372498D01*
X244499Y443998D02*
X243499Y444998D01*
X241500D01*
X240500Y443998D01*
Y440000D01*
X241500Y439000D01*
X243499D01*
X244499Y440000D01*
X250497Y439000D02*
X246498D01*
X250497Y442999D01*
Y443998D01*
X249497Y444998D01*
X247498D01*
X246498Y443998D01*
X460600Y139398D02*
Y133400D01*
X463599D01*
X464599Y134400D01*
Y138398D01*
X463599Y139398D01*
X460600D01*
X466598Y133400D02*
X468597D01*
X467598D01*
Y139398D01*
X466598Y138398D01*
X250100Y130398D02*
Y124400D01*
X254099D01*
X260097Y129398D02*
X259097Y130398D01*
X257098D01*
X256098Y129398D01*
Y125400D01*
X257098Y124400D01*
X259097D01*
X260097Y125400D01*
X262096Y130398D02*
Y124400D01*
X265095D01*
X266095Y125400D01*
Y129398D01*
X265095Y130398D01*
X262096D01*
X268094Y123400D02*
X272093D01*
X274092Y130398D02*
Y124400D01*
Y127399D01*
X278091D01*
Y130398D01*
Y124400D01*
X284089Y130398D02*
X280090D01*
Y124400D01*
X284089D01*
X280090Y127399D02*
X282090D01*
X286088Y124400D02*
Y128399D01*
X288088Y130398D01*
X290087Y128399D01*
Y124400D01*
Y127399D01*
X286088D01*
X292086Y130398D02*
Y124400D01*
X295085D01*
X296085Y125400D01*
Y129398D01*
X295085Y130398D01*
X292086D01*
X302083D02*
X298084D01*
Y124400D01*
X302083D01*
X298084Y127399D02*
X300084D01*
X304082Y124400D02*
Y130398D01*
X307082D01*
X308081Y129398D01*
Y127399D01*
X307082Y126399D01*
X304082D01*
X306082D02*
X308081Y124400D01*
X415600Y154398D02*
Y148400D01*
X419599D01*
X425597Y153398D02*
X424597Y154398D01*
X422598D01*
X421598Y153398D01*
Y149400D01*
X422598Y148400D01*
X424597D01*
X425597Y149400D01*
X427596Y154398D02*
Y148400D01*
X430595D01*
X431595Y149400D01*
Y153398D01*
X430595Y154398D01*
X427596D01*
X437593Y152399D02*
X434594D01*
X433594Y151399D01*
Y149400D01*
X434594Y148400D01*
X437593D01*
X440592D02*
X442591D01*
X443591Y149400D01*
Y151399D01*
X442591Y152399D01*
X440592D01*
X439592Y151399D01*
Y149400D01*
X440592Y148400D01*
X445590D02*
Y152399D01*
X448589D01*
X449589Y151399D01*
Y148400D01*
X452588Y153398D02*
Y152399D01*
X451588D01*
X453588D01*
X452588D01*
Y149400D01*
X453588Y148400D01*
X456587Y152399D02*
Y148400D01*
Y150399D01*
X457586Y151399D01*
X458586Y152399D01*
X459586D01*
X463585D02*
X465584D01*
X466583Y151399D01*
Y148400D01*
X463585D01*
X462585Y149400D01*
X463585Y150399D01*
X466583D01*
X468583Y148400D02*
X471582D01*
X472582Y149400D01*
X471582Y150399D01*
X469583D01*
X468583Y151399D01*
X469583Y152399D01*
X472582D01*
X475581Y153398D02*
Y152399D01*
X474581D01*
X476580D01*
X475581D01*
Y149400D01*
X476580Y148400D01*
X468600Y243898D02*
Y237900D01*
X472599D01*
X478597Y242898D02*
X477597Y243898D01*
X475598D01*
X474598Y242898D01*
Y241899D01*
X475598Y240899D01*
X477597D01*
X478597Y239899D01*
Y238900D01*
X477597Y237900D01*
X475598D01*
X474598Y238900D01*
X480596Y237900D02*
X482595D01*
X481596D01*
Y243898D01*
X480596Y242898D01*
X300150Y352250D02*
Y358248D01*
X302149Y356249D01*
X304149Y358248D01*
Y352250D01*
X307148Y356249D02*
X309147D01*
X310147Y355249D01*
Y352250D01*
X307148D01*
X306148Y353250D01*
X307148Y354249D01*
X310147D01*
X312146Y352250D02*
X314145D01*
X313146D01*
Y356249D01*
X312146D01*
X317144Y352250D02*
Y356249D01*
X320144D01*
X321143Y355249D01*
Y352250D01*
X323143Y351250D02*
X327141D01*
X333139Y357248D02*
X332140Y358248D01*
X330140D01*
X329141Y357248D01*
Y353250D01*
X330140Y352250D01*
X332140D01*
X333139Y353250D01*
X335139Y352250D02*
Y358248D01*
X338138D01*
X339137Y357248D01*
Y355249D01*
X338138Y354249D01*
X335139D01*
X341137Y358248D02*
Y353250D01*
X342136Y352250D01*
X344136D01*
X345135Y353250D01*
Y358248D01*
X425100Y439500D02*
Y445498D01*
X428099D01*
X429099Y444498D01*
Y442499D01*
X428099Y441499D01*
X425100D01*
X431098Y439500D02*
X433097D01*
X432098D01*
Y445498D01*
X431098Y444498D01*
X115350Y389250D02*
Y395248D01*
X118349D01*
X119349Y394248D01*
Y392249D01*
X118349Y391249D01*
X115350D01*
X122348Y389250D02*
X124347D01*
X125347Y390250D01*
Y392249D01*
X124347Y393249D01*
X122348D01*
X121348Y392249D01*
Y390250D01*
X122348Y389250D01*
X127346Y393249D02*
Y390250D01*
X128346Y389250D01*
X129346Y390250D01*
X130345Y389250D01*
X131345Y390250D01*
Y393249D01*
X136343Y389250D02*
X134344D01*
X133344Y390250D01*
Y392249D01*
X134344Y393249D01*
X136343D01*
X137343Y392249D01*
Y391249D01*
X133344D01*
X139342Y393249D02*
Y389250D01*
Y391249D01*
X140342Y392249D01*
X141342Y393249D01*
X142341D01*
X145340Y389250D02*
X147340D01*
X146340D01*
Y395248D01*
X145340Y394248D01*
X316500Y431000D02*
Y436998D01*
X319499D01*
X320499Y435998D01*
Y433999D01*
X319499Y432999D01*
X316500D01*
X322498Y434999D02*
Y431000D01*
Y432999D01*
X323498Y433999D01*
X324497Y434999D01*
X325497D01*
X329496Y431000D02*
X331495D01*
X332495Y432000D01*
Y433999D01*
X331495Y434999D01*
X329496D01*
X328496Y433999D01*
Y432000D01*
X329496Y431000D01*
X336493Y429001D02*
X337493D01*
X338493Y430000D01*
Y434999D01*
X335494D01*
X334494Y433999D01*
Y432000D01*
X335494Y431000D01*
X338493D01*
X340492Y434999D02*
Y431000D01*
Y432999D01*
X341492Y433999D01*
X342492Y434999D01*
X343491D01*
X347490D02*
X349489D01*
X350489Y433999D01*
Y431000D01*
X347490D01*
X346490Y432000D01*
X347490Y432999D01*
X350489D01*
X352488Y431000D02*
Y434999D01*
X353488D01*
X354488Y433999D01*
Y431000D01*
Y433999D01*
X355487Y434999D01*
X356487Y433999D01*
Y431000D01*
X358486Y436998D02*
Y431000D01*
Y433999D01*
X362485D01*
Y436998D01*
Y431000D01*
X367483D02*
X365484D01*
X364485Y432000D01*
Y433999D01*
X365484Y434999D01*
X367483D01*
X368483Y433999D01*
Y432999D01*
X364485D01*
X371482Y434999D02*
X373482D01*
X374481Y433999D01*
Y431000D01*
X371482D01*
X370482Y432000D01*
X371482Y432999D01*
X374481D01*
X380479Y436998D02*
Y431000D01*
X377480D01*
X376481Y432000D01*
Y433999D01*
X377480Y434999D01*
X380479D01*
X385478Y431000D02*
X383478D01*
X382479Y432000D01*
Y433999D01*
X383478Y434999D01*
X385478D01*
X386477Y433999D01*
Y432999D01*
X382479D01*
X388477Y434999D02*
Y431000D01*
Y432999D01*
X389476Y433999D01*
X390476Y434999D01*
X391476D01*
X435099Y282900D02*
Y286898D01*
X434099Y287898D01*
X432100D01*
X431100Y286898D01*
Y282900D01*
X432100Y281900D01*
X434099D01*
X433099Y283899D02*
X435099Y281900D01*
X434099D02*
X435099Y282900D01*
X437098Y281900D02*
X439097D01*
X438098D01*
Y287898D01*
X437098Y286898D01*
X360300Y370900D02*
Y376898D01*
X363299D01*
X364299Y375898D01*
Y373899D01*
X363299Y372899D01*
X360300D01*
X362299D02*
X364299Y370900D01*
X366298D02*
X368297D01*
X367298D01*
Y376898D01*
X366298Y375898D01*
X312800Y370900D02*
Y376898D01*
X315799D01*
X316799Y375898D01*
Y373899D01*
X315799Y372899D01*
X312800D01*
X314799D02*
X316799Y370900D01*
X322797D02*
X318798D01*
X322797Y374899D01*
Y375898D01*
X321797Y376898D01*
X319798D01*
X318798Y375898D01*
X412800Y176400D02*
Y182398D01*
X415799D01*
X416799Y181398D01*
Y179399D01*
X415799Y178399D01*
X412800D01*
X414799D02*
X416799Y176400D01*
X418798Y181398D02*
X419798Y182398D01*
X421797D01*
X422797Y181398D01*
Y180399D01*
X421797Y179399D01*
X420797D01*
X421797D01*
X422797Y178399D01*
Y177400D01*
X421797Y176400D01*
X419798D01*
X418798Y177400D01*
X404600Y325700D02*
Y331698D01*
X407599D01*
X408599Y330698D01*
Y328699D01*
X407599Y327699D01*
X404600D01*
X406599D02*
X408599Y325700D01*
X413597D02*
Y331698D01*
X410598Y328699D01*
X414597D01*
X222600Y152200D02*
Y158198D01*
X225599D01*
X226599Y157198D01*
Y155199D01*
X225599Y154199D01*
X222600D01*
X224599D02*
X226599Y152200D01*
X232597Y158198D02*
X228598D01*
Y155199D01*
X230597Y156199D01*
X231597D01*
X232597Y155199D01*
Y153200D01*
X231597Y152200D01*
X229598D01*
X228598Y153200D01*
X298498Y394000D02*
X293500D01*
X292500Y393000D01*
Y391001D01*
X293500Y390001D01*
X298498D01*
X292500Y388002D02*
Y386003D01*
Y387002D01*
X298498D01*
X297498Y388002D01*
X425600Y364598D02*
Y359600D01*
X426600Y358600D01*
X428599D01*
X429599Y359600D01*
Y364598D01*
X435597Y358600D02*
X431598D01*
X435597Y362599D01*
Y363598D01*
X434597Y364598D01*
X432598D01*
X431598Y363598D01*
X115799Y167098D02*
X114799Y168098D01*
X112800D01*
X111800Y167098D01*
Y166099D01*
X112800Y165099D01*
X114799D01*
X115799Y164099D01*
Y163100D01*
X114799Y162100D01*
X112800D01*
X111800Y163100D01*
X117798Y168098D02*
Y162100D01*
X119797Y164099D01*
X121797Y162100D01*
Y168098D01*
X123796Y165099D02*
X127795D01*
X133793Y167098D02*
X132793Y168098D01*
X130794D01*
X129794Y167098D01*
Y166099D01*
X130794Y165099D01*
X132793D01*
X133793Y164099D01*
Y163100D01*
X132793Y162100D01*
X130794D01*
X129794Y163100D01*
X135792Y162100D02*
Y168098D01*
X138791D01*
X139791Y167098D01*
Y165099D01*
X138791Y164099D01*
X135792D01*
X141790Y168098D02*
Y162100D01*
X144789D01*
X145789Y163100D01*
Y167098D01*
X144789Y168098D01*
X141790D01*
X147788D02*
X151787D01*
X149788D01*
Y162100D01*
X153786D02*
X155786D01*
X154786D01*
Y168098D01*
X153786Y167098D01*
X163002Y246000D02*
X169000D01*
Y248999D01*
X168000Y249999D01*
X167001D01*
X166001Y248999D01*
Y246000D01*
Y248999D01*
X165001Y249999D01*
X164002D01*
X163002Y248999D01*
Y246000D01*
X169000Y251998D02*
X165001D01*
X163002Y253997D01*
X165001Y255997D01*
X169000D01*
X166001D01*
Y251998D01*
X163002Y257996D02*
Y261995D01*
Y259996D01*
X169000D01*
X163002Y263994D02*
Y267993D01*
Y265993D01*
X169000D01*
X163002Y273991D02*
Y269992D01*
X169000D01*
Y273991D01*
X166001Y269992D02*
Y271992D01*
X169000Y275990D02*
X163002D01*
Y278989D01*
X164002Y279989D01*
X166001D01*
X167001Y278989D01*
Y275990D01*
Y277990D02*
X169000Y279989D01*
X163002Y281988D02*
X164002D01*
X166001Y283988D01*
X164002Y285987D01*
X163002D01*
X166001Y283988D02*
X169000D01*
X164002Y297983D02*
X163002Y296984D01*
Y294984D01*
X164002Y293985D01*
X165001D01*
X166001Y294984D01*
Y296984D01*
X167001Y297983D01*
X168000D01*
X169000Y296984D01*
Y294984D01*
X168000Y293985D01*
X169000Y299983D02*
X163002D01*
Y302982D01*
X164002Y303981D01*
X166001D01*
X167001Y302982D01*
Y299983D01*
X163002Y308980D02*
Y306980D01*
X164002Y305981D01*
X168000D01*
X169000Y306980D01*
Y308980D01*
X168000Y309979D01*
X164002D01*
X163002Y308980D01*
Y311979D02*
Y315977D01*
Y313978D01*
X169000D01*
X112000Y437998D02*
Y433000D01*
X114499D01*
X115332Y433833D01*
Y434666D01*
X114499Y435499D01*
X112000D01*
X114499D01*
X115332Y436332D01*
Y437165D01*
X114499Y437998D01*
X112000D01*
X116998Y436332D02*
Y433000D01*
Y434666D01*
X117831Y435499D01*
X118665Y436332D01*
X119498D01*
X122830D02*
X124496D01*
X125329Y435499D01*
Y433000D01*
X122830D01*
X121997Y433833D01*
X122830Y434666D01*
X125329D01*
X126995Y433000D02*
Y436332D01*
X129494D01*
X130327Y435499D01*
Y433000D01*
X135326Y437998D02*
Y433000D01*
X132827D01*
X131993Y433833D01*
Y435499D01*
X132827Y436332D01*
X135326D01*
X137825Y433000D02*
X139491D01*
X140324Y433833D01*
Y435499D01*
X139491Y436332D01*
X137825D01*
X136992Y435499D01*
Y433833D01*
X137825Y433000D01*
X141990D02*
Y436332D01*
X144490D01*
X145323Y435499D01*
Y433000D01*
X151987D02*
Y437998D01*
X154486D01*
X155319Y437165D01*
Y435499D01*
X154486Y434666D01*
X151987D01*
X157818Y433000D02*
X159485D01*
X160318Y433833D01*
Y435499D01*
X159485Y436332D01*
X157818D01*
X156985Y435499D01*
Y433833D01*
X157818Y433000D01*
X161984D02*
X163650D01*
X162817D01*
Y437998D01*
X161984D01*
X166149Y433000D02*
X167815D01*
X166982D01*
Y437998D01*
X166149D01*
X171148Y436332D02*
X172814D01*
X173647Y435499D01*
Y433000D01*
X171148D01*
X170314Y433833D01*
X171148Y434666D01*
X173647D01*
X178645Y436332D02*
X176146D01*
X175313Y435499D01*
Y433833D01*
X176146Y433000D01*
X178645D01*
X180311D02*
Y437998D01*
Y434666D02*
X182810Y436332D01*
X180311Y434666D02*
X182810Y433000D01*
X116498Y418500D02*
X111500D01*
X116498Y423498D01*
Y424748D01*
X115249Y425998D01*
X112750D01*
X111500Y424748D01*
X118998Y425998D02*
X123996D01*
Y424748D01*
X118998Y419750D01*
Y418500D01*
X126495Y424748D02*
X127745Y425998D01*
X130244D01*
X131493Y424748D01*
Y423498D01*
X130244Y422249D01*
X128994D01*
X130244D01*
X131493Y420999D01*
Y419750D01*
X130244Y418500D01*
X127745D01*
X126495Y419750D01*
X138991Y425998D02*
X133993D01*
Y422249D01*
X136492Y423498D01*
X137741D01*
X138991Y422249D01*
Y419750D01*
X137741Y418500D01*
X135242D01*
X133993Y419750D01*
X141490Y422249D02*
X146489D01*
X148988Y418500D02*
X151487D01*
X150238D01*
Y425998D01*
X148988Y424748D01*
X155236D02*
X156485Y425998D01*
X158985D01*
X160234Y424748D01*
Y423498D01*
X158985Y422249D01*
X157735D01*
X158985D01*
X160234Y420999D01*
Y419750D01*
X158985Y418500D01*
X156485D01*
X155236Y419750D01*
X167732Y425998D02*
X165233Y424748D01*
X162733Y422249D01*
Y419750D01*
X163983Y418500D01*
X166482D01*
X167732Y419750D01*
Y420999D01*
X166482Y422249D01*
X162733D01*
X175229Y425998D02*
X170231D01*
Y422249D01*
X172730Y423498D01*
X173980D01*
X175229Y422249D01*
Y419750D01*
X173980Y418500D01*
X171481D01*
X170231Y419750D01*
D26*
X549717Y407000D02*
G03*
X549717Y407000I-3937J0D01*
G01*
X475307Y383772D02*
Y430228D01*
X483575Y431606D02*
X487512Y382394D01*
Y431606D02*
X491449Y382394D01*
Y431606D02*
X495386Y382394D01*
Y431606D02*
X499323Y382394D01*
Y431606D02*
X503260Y382394D01*
Y431606D02*
X507197Y382394D01*
Y431606D02*
X511134Y382394D01*
Y431606D02*
X515071Y382394D01*
D27*
X482063Y229000D02*
G03*
X482063Y229000I-492J0D01*
G01*
X302992Y343618D02*
G03*
X302992Y343618I-492J0D01*
G01*
X428492Y354618D02*
G03*
X428492Y354618I-492J0D01*
G01*
X268268Y397504D02*
G03*
X268268Y397504I-492J0D01*
G01*
D28*
X312224Y343894D02*
G03*
X312224Y343894I-1181J0D01*
G01*
X437685Y350839D02*
G03*
X437685Y350839I-1181J0D01*
G01*
D29*
X330000Y347831D02*
G03*
X335000Y347831I2500J0D01*
G01*
X440500Y354776D02*
G03*
X445500Y354776I2500J0D01*
G01*
X430500Y278500D02*
X460500D01*
X430500Y268500D02*
Y278500D01*
Y268500D02*
X460500D01*
Y278500D01*
X515071Y388102D02*
Y425898D01*
X480032Y382394D02*
Y431606D01*
X424520Y377866D02*
X480032D01*
Y382394D01*
X515071D01*
Y388102D01*
X561921D01*
Y425898D01*
X515071D02*
X561921D01*
X515071D02*
Y431606D01*
X480032D02*
X515071D01*
X480032D02*
Y436134D01*
X424520D02*
X480032D01*
X424520Y377866D02*
Y436134D01*
X435000Y105000D02*
Y145000D01*
X425000Y105000D02*
X435000D01*
X425000Y100000D02*
Y105000D01*
X415000Y100000D02*
X425000D01*
X415000D02*
Y145000D01*
X435000D01*
X340000Y364500D02*
X340900D01*
X319100D02*
X320000D01*
X340000Y361500D02*
Y364500D01*
X320000Y361500D02*
X340000D01*
X320000D02*
Y367500D01*
X340000D01*
Y364500D02*
Y367500D01*
X387500Y364500D02*
X388400D01*
X366600D02*
X367500D01*
X387500Y361500D02*
Y364500D01*
X367500Y361500D02*
X387500D01*
X367500D02*
Y367500D01*
X387500D01*
Y364500D02*
Y367500D01*
X440000Y170000D02*
X440900D01*
X419100D02*
X420000D01*
X440000Y167000D02*
Y170000D01*
X420000Y167000D02*
X440000D01*
X420000D02*
Y173000D01*
X440000D01*
Y170000D02*
Y173000D01*
X470000Y110000D02*
Y130000D01*
X460000D02*
X470000D01*
X460000Y110000D02*
Y130000D01*
Y110000D02*
X470000D01*
X249500D02*
Y120000D01*
Y110000D02*
X402000D01*
X409500D01*
Y120000D01*
X249500D02*
X409500D01*
X407000Y293600D02*
Y294500D01*
Y314500D02*
Y315400D01*
X404000Y294500D02*
X407000D01*
X404000D02*
Y314500D01*
X410000D01*
Y294500D02*
Y314500D01*
X407000Y294500D02*
X410000D01*
X467988Y234512D02*
X479012D01*
X467988Y213488D02*
X479012D01*
Y234512D01*
X467988Y213488D02*
Y234512D01*
X225000Y141000D02*
Y141900D01*
Y120100D02*
Y121000D01*
Y141000D02*
X228000D01*
Y121000D02*
Y141000D01*
X222000Y121000D02*
X228000D01*
X222000D02*
Y141000D01*
X225000D01*
X307106Y139169D02*
X357894D01*
X335000Y347831D02*
X357894D01*
X307106D02*
X330000D01*
X357894Y139169D02*
Y347831D01*
X307106Y139169D02*
Y347831D01*
X286000Y143500D02*
Y336000D01*
Y343500D01*
X276000D02*
X286000D01*
X276000Y143500D02*
Y343500D01*
Y143500D02*
X286000D01*
X388500D02*
Y336000D01*
Y343500D01*
X378500D02*
X388500D01*
X378500Y143500D02*
Y343500D01*
Y143500D02*
X388500D01*
X432567Y314224D02*
X453433D01*
X445500Y354776D02*
X453433D01*
X432567D02*
X440500D01*
X453433Y314224D02*
Y354776D01*
X432567Y314224D02*
Y354776D01*
X265217Y357937D02*
X283720D01*
X265217Y400063D02*
X283720D01*
X265217Y357937D02*
Y400063D01*
X283720Y357937D02*
Y400063D01*
X281752Y357937D02*
Y400063D01*
X259000Y379500D02*
Y399500D01*
X249000D02*
X259000D01*
X249000Y379500D02*
Y399500D01*
Y379500D02*
X259000D01*
X355833Y403500D02*
X375000D01*
X345000D02*
X375000D01*
X345000Y423500D02*
X375000D01*
X345000Y403500D02*
Y423500D01*
X375000Y403500D02*
Y423500D01*
X204240Y404496D02*
Y441504D01*
X296760Y404496D02*
Y441504D01*
X204240D02*
X296760D01*
X204240Y404496D02*
X296760D01*
D30*
X561921Y388102D02*
Y425898D01*
X515071D02*
X561921D01*
X515071Y388102D02*
Y425898D01*
Y388102D02*
X561921D01*
X515071Y382394D02*
Y388102D01*
X480032Y382394D02*
X515071D01*
X480032D02*
Y431606D01*
X515071D01*
Y425898D02*
Y431606D01*
X480032Y377866D02*
Y382394D01*
X424520Y377866D02*
X480032D01*
X424520D02*
Y436134D01*
X480032D01*
Y431606D02*
Y436134D01*
X443811Y430228D02*
X475307D01*
X443811Y383772D02*
Y430228D01*
Y383772D02*
X475307D01*
D31*
X342000Y406500D02*
X343666D01*
X342833D01*
Y411498D01*
X342000Y410665D01*
X343332Y416500D02*
X340000D01*
X343332Y419832D01*
Y420665D01*
X342499Y421498D01*
X340833D01*
X340000Y420665D01*
X379332Y411498D02*
X376000D01*
Y408999D01*
X377666Y409832D01*
X378499D01*
X379332Y408999D01*
Y407333D01*
X378499Y406500D01*
X376833D01*
X376000Y407333D01*
X379332Y421498D02*
X377666Y420665D01*
X376000Y418999D01*
Y417333D01*
X376833Y416500D01*
X378499D01*
X379332Y417333D01*
Y418166D01*
X378499Y418999D01*
X376000D01*
D32*
X305933Y416406D02*
X301997D01*
X303965Y414439D02*
Y418374D01*
M02*
