M48
;Layer_Color=9474304
;FILE_FORMAT=2:5
INCH,LZ
;TYPE=PLATED
T1F00S00C0.02756
T2F00S00C0.02800
T3F00S00C0.03346
T4F00S00C0.03543
T5F00S00C0.03740
T6F00S00C0.03937
T7F00S00C0.04000
T8F00S00C0.05000
T9F00S00C0.07874
T10F00S00C0.18000
%
T01
X0425Y0115
Y0125
Y0135
T02
X03523Y02985
X02896Y02545
X03223Y04281
X03972Y03603
T03
X0225Y0116
Y0146
X0415Y017
X0445
X0407Y02895
Y03195
X03925Y03645
X03625
X0345
X0315
T04
X02545Y0115
X02645
X02745
X02845
X02945
X03045
X03025Y01485
X0281
X03145Y0115
X03245
X03345
X03445
X03545
X03645
X03745
X03845
X03945
X04045
X03835Y01485
X03625
X0465Y0125
Y0115
X04735Y0219
Y0229
X04555Y02735
X04455
X04355
X03835Y02685
Y02585
Y02485
Y02385
Y02285
Y02185
Y02085
Y01985
Y01885
Y01785
Y01685
Y01585
X03625
Y01685
Y01785
Y01885
Y01985
Y02085
Y02185
Y02285
Y02385
Y02485
Y02585
Y02685
Y02785
Y02885
Y02985
Y03085
X03835
Y02985
Y02885
Y02785
X03025
Y02685
Y02585
Y02485
Y02385
Y02285
Y02185
Y02085
Y01985
Y01885
Y01785
Y01685
Y01585
X0281
Y01685
Y01785
Y01885
Y01985
Y02085
Y02185
Y02285
Y02385
Y02485
Y02585
Y02685
Y02785
Y02885
Y02985
Y03085
X03025
Y02985
Y02885
Y03185
Y03285
Y03385
X0281
Y03285
Y03185
X0254Y03845
Y03945
X035Y04085
X036
X037
Y04185
X036
X035
X0432Y0416843
Y0407
X0428Y03495
Y03395
Y03295
Y03195
X0458
Y03295
Y03395
Y03495
X03835Y03385
Y03285
Y03185
X03625
Y03285
Y03385
T05
X0197035Y0423
X0303965
T06
X02725Y0369
Y0379
Y0389
T07
X01435Y0383
X01935
T08
X0115Y0135
X0135
Y0155
X0125
X0115
X0169Y0135
Y0115
X0199
Y0135
T09
X0452079Y0386921
Y0427079
T10
X02128Y02843
X01248Y02312
Y03374
M30
