%FSLAX25Y25*%
%MOIN*%
G70*
G01*
G75*
%ADD10C,0.01000*%
%ADD11R,0.06299X0.06299*%
%ADD12C,0.06299*%
%ADD13R,0.05906X0.05906*%
%ADD14C,0.05906*%
%ADD15R,0.05906X0.05906*%
%ADD16R,0.06299X0.06299*%
%ADD17C,0.06299*%
%ADD18C,0.07500*%
%ADD19C,0.20000*%
%ADD20C,0.05600*%
%ADD21C,0.05512*%
%ADD22O,0.03937X0.07874*%
%ADD23O,0.03937X0.07874*%
%ADD24R,0.04724X0.04724*%
%ADD25C,0.04724*%
%ADD26C,0.12992*%
%ADD27C,0.05000*%
D11*
X303965Y423000D02*
D03*
D12*
X197035D02*
D03*
D13*
X350000Y408500D02*
D03*
X428000Y349500D02*
D03*
X302500Y338500D02*
D03*
X404500Y115000D02*
D03*
X432000Y407000D02*
D03*
D14*
X350000Y418500D02*
D03*
X360000Y408500D02*
D03*
Y418500D02*
D03*
X370000Y408500D02*
D03*
Y418500D02*
D03*
X254000Y384500D02*
D03*
X428000Y339500D02*
D03*
Y329500D02*
D03*
Y319500D02*
D03*
X458000Y349500D02*
D03*
Y339500D02*
D03*
Y329500D02*
D03*
Y319500D02*
D03*
X383500Y328500D02*
D03*
Y318500D02*
D03*
Y308500D02*
D03*
Y298500D02*
D03*
Y288500D02*
D03*
Y278500D02*
D03*
Y268500D02*
D03*
Y258500D02*
D03*
Y248500D02*
D03*
Y238500D02*
D03*
Y228500D02*
D03*
Y218500D02*
D03*
Y208500D02*
D03*
Y198500D02*
D03*
Y188500D02*
D03*
Y178500D02*
D03*
Y168500D02*
D03*
Y158500D02*
D03*
Y148500D02*
D03*
X281000Y328500D02*
D03*
Y318500D02*
D03*
Y308500D02*
D03*
Y298500D02*
D03*
Y288500D02*
D03*
Y278500D02*
D03*
Y268500D02*
D03*
Y258500D02*
D03*
Y248500D02*
D03*
Y238500D02*
D03*
Y228500D02*
D03*
Y218500D02*
D03*
Y208500D02*
D03*
Y198500D02*
D03*
Y188500D02*
D03*
Y178500D02*
D03*
Y168500D02*
D03*
Y158500D02*
D03*
Y148500D02*
D03*
X302500Y328500D02*
D03*
Y318500D02*
D03*
Y308500D02*
D03*
Y298500D02*
D03*
Y288500D02*
D03*
Y278500D02*
D03*
Y268500D02*
D03*
Y258500D02*
D03*
Y248500D02*
D03*
Y238500D02*
D03*
Y228500D02*
D03*
Y218500D02*
D03*
Y208500D02*
D03*
Y198500D02*
D03*
Y188500D02*
D03*
Y178500D02*
D03*
Y168500D02*
D03*
Y158500D02*
D03*
Y148500D02*
D03*
X362500Y338500D02*
D03*
Y328500D02*
D03*
Y318500D02*
D03*
Y308500D02*
D03*
Y298500D02*
D03*
Y288500D02*
D03*
Y278500D02*
D03*
Y268500D02*
D03*
Y258500D02*
D03*
Y248500D02*
D03*
Y238500D02*
D03*
Y228500D02*
D03*
Y218500D02*
D03*
Y208500D02*
D03*
Y198500D02*
D03*
Y188500D02*
D03*
Y178500D02*
D03*
Y168500D02*
D03*
Y158500D02*
D03*
Y148500D02*
D03*
X473500Y219000D02*
D03*
X394500Y115000D02*
D03*
X384500D02*
D03*
X374500D02*
D03*
X364500D02*
D03*
X354500D02*
D03*
X344500D02*
D03*
X334500D02*
D03*
X324500D02*
D03*
X314500D02*
D03*
X304500D02*
D03*
X294500D02*
D03*
X284500D02*
D03*
X274500D02*
D03*
X264500D02*
D03*
X254500D02*
D03*
X465000D02*
D03*
X432000Y416843D02*
D03*
D15*
X254000Y394500D02*
D03*
X383500Y338500D02*
D03*
X281000D02*
D03*
X473500Y229000D02*
D03*
X465000Y125000D02*
D03*
D16*
X272500Y389000D02*
D03*
D17*
Y379000D02*
D03*
Y369000D02*
D03*
D18*
X125000Y155000D02*
D03*
X115000D02*
D03*
X135000D02*
D03*
X115000Y135000D02*
D03*
X135000D02*
D03*
X169000Y115000D02*
D03*
X199000D02*
D03*
X169000Y135000D02*
D03*
X199000D02*
D03*
D19*
X124800Y337400D02*
D03*
Y231200D02*
D03*
X212800Y284300D02*
D03*
D20*
X193500Y383000D02*
D03*
X143500D02*
D03*
D21*
X225000Y146000D02*
D03*
Y116000D02*
D03*
X407000Y289500D02*
D03*
Y319500D02*
D03*
X445000Y170000D02*
D03*
X415000D02*
D03*
X392500Y364500D02*
D03*
X362500D02*
D03*
X345000D02*
D03*
X315000D02*
D03*
D22*
X453000Y273000D02*
D03*
D23*
X448000D02*
D03*
X443000D02*
D03*
D24*
X425000Y135000D02*
D03*
D25*
Y125000D02*
D03*
Y115000D02*
D03*
D26*
X452079Y386921D02*
D03*
Y427079D02*
D03*
M02*
