%FSLAX25Y25*%
%MOIN*%
G70*
G01*
G75*
G04 Layer_Color=8388736*
%ADD10C,0.01000*%
%ADD11R,0.05906X0.05906*%
%ADD12C,0.05906*%
%ADD13C,0.07500*%
%ADD14C,0.12992*%
%ADD15C,0.04724*%
%ADD16R,0.04724X0.04724*%
%ADD17C,0.05512*%
%ADD18R,0.05906X0.05906*%
%ADD19C,0.20000*%
%ADD20C,0.05600*%
%ADD21C,0.06299*%
%ADD22R,0.06299X0.06299*%
%ADD23C,0.06299*%
%ADD24R,0.06299X0.06299*%
%ADD25C,0.05000*%
%ADD26C,0.00098*%
%ADD27C,0.00984*%
%ADD28C,0.02362*%
%ADD29C,0.00787*%
%ADD30C,0.00098*%
%ADD31C,0.00800*%
%ADD32C,0.00591*%
%ADD33R,0.06706X0.06706*%
%ADD34C,0.06706*%
%ADD35C,0.08300*%
%ADD36C,0.13792*%
%ADD37C,0.05524*%
%ADD38R,0.05524X0.05524*%
%ADD39C,0.06312*%
%ADD40R,0.06706X0.06706*%
%ADD41C,0.20800*%
%ADD42C,0.06400*%
%ADD43C,0.07099*%
%ADD44R,0.07099X0.07099*%
%ADD45C,0.07099*%
%ADD46R,0.07099X0.07099*%
%ADD47C,0.05800*%
D33*
X455500Y273500D02*
D03*
X432000Y407000D02*
D03*
X404500Y115000D02*
D03*
X302500Y338500D02*
D03*
X428000Y349500D02*
D03*
X350000Y408500D02*
D03*
D34*
X445500Y273500D02*
D03*
X435500D02*
D03*
X432000Y416843D02*
D03*
X465000Y115000D02*
D03*
X254500D02*
D03*
X264500D02*
D03*
X274500D02*
D03*
X284500D02*
D03*
X294500D02*
D03*
X304500D02*
D03*
X314500D02*
D03*
X324500D02*
D03*
X334500D02*
D03*
X344500D02*
D03*
X354500D02*
D03*
X364500D02*
D03*
X374500D02*
D03*
X384500D02*
D03*
X394500D02*
D03*
X473500Y219000D02*
D03*
X362500Y148500D02*
D03*
Y158500D02*
D03*
Y168500D02*
D03*
Y178500D02*
D03*
Y188500D02*
D03*
Y198500D02*
D03*
Y208500D02*
D03*
Y218500D02*
D03*
Y228500D02*
D03*
Y238500D02*
D03*
Y248500D02*
D03*
Y258500D02*
D03*
Y268500D02*
D03*
Y278500D02*
D03*
Y288500D02*
D03*
Y298500D02*
D03*
Y308500D02*
D03*
Y318500D02*
D03*
Y328500D02*
D03*
Y338500D02*
D03*
X302500Y148500D02*
D03*
Y158500D02*
D03*
Y168500D02*
D03*
Y178500D02*
D03*
Y188500D02*
D03*
Y198500D02*
D03*
Y208500D02*
D03*
Y218500D02*
D03*
Y228500D02*
D03*
Y238500D02*
D03*
Y248500D02*
D03*
Y258500D02*
D03*
Y268500D02*
D03*
Y278500D02*
D03*
Y288500D02*
D03*
Y298500D02*
D03*
Y308500D02*
D03*
Y318500D02*
D03*
Y328500D02*
D03*
X281000Y148500D02*
D03*
Y158500D02*
D03*
Y168500D02*
D03*
Y178500D02*
D03*
Y188500D02*
D03*
Y198500D02*
D03*
Y208500D02*
D03*
Y218500D02*
D03*
Y228500D02*
D03*
Y238500D02*
D03*
Y248500D02*
D03*
Y258500D02*
D03*
Y268500D02*
D03*
Y278500D02*
D03*
Y288500D02*
D03*
Y298500D02*
D03*
Y308500D02*
D03*
Y318500D02*
D03*
Y328500D02*
D03*
X383500Y148500D02*
D03*
Y158500D02*
D03*
Y168500D02*
D03*
Y178500D02*
D03*
Y188500D02*
D03*
Y198500D02*
D03*
Y208500D02*
D03*
Y218500D02*
D03*
Y228500D02*
D03*
Y238500D02*
D03*
Y248500D02*
D03*
Y258500D02*
D03*
Y268500D02*
D03*
Y278500D02*
D03*
Y288500D02*
D03*
Y298500D02*
D03*
Y308500D02*
D03*
Y318500D02*
D03*
Y328500D02*
D03*
X458000Y319500D02*
D03*
Y329500D02*
D03*
Y339500D02*
D03*
Y349500D02*
D03*
X428000Y319500D02*
D03*
Y329500D02*
D03*
Y339500D02*
D03*
X254000Y384500D02*
D03*
X370000Y418500D02*
D03*
Y408500D02*
D03*
X360000Y418500D02*
D03*
Y408500D02*
D03*
X350000Y418500D02*
D03*
D35*
X199000Y135000D02*
D03*
X169000D02*
D03*
X199000Y115000D02*
D03*
X169000D02*
D03*
X135000Y135000D02*
D03*
X115000D02*
D03*
X135000Y155000D02*
D03*
X115000D02*
D03*
X125000D02*
D03*
D36*
X452079Y427079D02*
D03*
Y386921D02*
D03*
D37*
X425000Y115000D02*
D03*
Y125000D02*
D03*
D38*
Y135000D02*
D03*
D39*
X315000Y364500D02*
D03*
X345000D02*
D03*
X362500D02*
D03*
X392500D02*
D03*
X415000Y170000D02*
D03*
X445000D02*
D03*
X407000Y319500D02*
D03*
Y289500D02*
D03*
X225000Y116000D02*
D03*
Y146000D02*
D03*
D40*
X465000Y125000D02*
D03*
X473500Y229000D02*
D03*
X281000Y338500D02*
D03*
X383500D02*
D03*
X254000Y394500D02*
D03*
D41*
X212800Y284300D02*
D03*
X124800Y231200D02*
D03*
Y337400D02*
D03*
D42*
X143500Y383000D02*
D03*
X193500D02*
D03*
D43*
X272500Y369000D02*
D03*
Y379000D02*
D03*
D44*
Y389000D02*
D03*
D45*
X197035Y423000D02*
D03*
D46*
X303965D02*
D03*
D47*
X352300Y298500D02*
D03*
X397200Y360300D02*
D03*
X289600Y254500D02*
D03*
X322300Y428100D02*
D03*
M02*
